<?xml version="1.0" encoding="UTF-8"?>
<svg id="Capa_3" data-name="Capa 3" xmlns="http://www.w3.org/2000/svg" version="1.1" viewBox="0 0 100 100">
  <g>
    <path d="M62.65,4.74c-3.67.76-6.39,4.3-6.24,8.08,0,.56.07,1.12.1,1.68-.25-1.11-.5-2.24-.44-3.38-.02-3.72,2.6-6.99,6.06-8.3,0,0,.53,1.93.53,1.93h0Z" style="fill: #0b0b33; stroke-width: 0px;"/>
    <g>
      <polygon points="68.27 69.05 68.62 80.22 66.28 69.29 68.27 69.05 68.27 69.05" style="fill: #0b0b33; stroke-width: 0px;"/>
      <path d="M9.28,23.34c0-.53.01-1.08.06-1.66.75-8.84,9.89-9.25,11.35-9.26.12,0,.22-.07.27-.18.5-1.09,3.52-6.81,11.86-5.05.1.02.21-.01.29-.09.91-1.01,7.26-7.5,16.23-3.29.1.05.22.04.31-.03.99-.72,6.98-4.7,12.64-.11.07.06.17.08.26.06,1.13-.26,8.76-1.72,12.93,6.12.05.09.13.14.22.16,1.33.18,11.14,1.87,12.57,11.63.02.11.09.2.2.24,1.25.44,8.86,3.59,5.45,14.63-.02.07-.02.15.01.22.5,1.06,4.34,10.14-7.47,15.04-.11.05-.19.16-.19.28.04,2.01-.21,18.15-18.66,16.77-.19-.01-.35.15-.32.34h0" style="fill: none; stroke: #0b0b33; stroke-miterlimit: 10; stroke-width: 2px;"/>
      <path d="M20.88,33.89c-8.71,1.08-15.44-6.25-11.17-14.57,0,0,.2.04.2.04.5,8.6,1.17,13.34,10.97,14.33,0,0,0,.2,0,.2h0Z" style="fill: #0b0b33; stroke-width: 0px;"/>
      <path d="M58.81,67.98c1.15,3.66,1.25,7.46.81,11.2-.1-1.84-.38-3.66-.8-5.42-.42-1.76-1.03-3.46-1.85-4.99l1.84-.79h0Z" style="fill: #0b0b33; stroke-width: 0px;"/>
      <path d="M9.28,23.17s-9.43,10.54,0,22.86c6.37,8.33,16.49,5.57,18.51,4.92.18-.06.37.06.39.25.26,2.08,2.42,12.07,20.38,11.04,5.07-.29,7.84,2.64,9.34,6.14" style="fill: none; stroke: #0b0b33; stroke-miterlimit: 10; stroke-width: 2px;"/>
      <path d="M27.16,50.97c-.37-4.83,2.05-10.35,7.21-11.22-2.15.78-3.99,2.33-4.78,4.48-.77,2-.86,4.38-.45,6.44,0,0-1.98.3-1.98.3h0Z" style="fill: #0b0b33; stroke-width: 0px;"/>
      <path d="M85.26,51.86c.18-5.81-3.37-11.86-9.26-13.3-.82-.25-1.69-.35-2.54-.54,1.73.15,3.5.33,5.13,1.02,5.24,1.91,8.24,7.42,8.67,12.81,0,0-2,0-2,0h0Z" style="fill: #0b0b33; stroke-width: 0px;"/>
    </g>
  </g>
  <g>
    <path d="M38.57,80.62c.83.42,1.49,1.04,1.99,1.86.5.82.75,1.64.75,2.46,0,.99-.29,1.84-.87,2.58-.58.73-1.32,1.1-2.22,1.1-.45,0-.93-.15-1.45-.45-.52-.3-.97-.73-1.35-1.3.33-.51.81-.94,1.43-1.3l.13.16c-.02.11-.03.26-.03.46,0,.46.16.86.47,1.22.32.36.67.53,1.08.53.5,0,.9-.21,1.22-.63.32-.42.47-.95.47-1.58,0-1.31-.78-2.49-2.34-3.51l-1.35,2.13c-.54.87-.93,1.45-1.18,1.75l-.49-.4c1.08-1.6,2.16-3.55,3.23-5.85l.38.03.13.75ZM44.01,85.78c-1.13,1.87-2.57,2.88-4.29,3.04l-.1-.3c.76-.18,1.41-.48,1.95-.9.54-.42,1.19-1.16,1.96-2.22l.48.38Z" style="fill: #0b0b33; stroke-width: 0px;"/>
    <path d="M52.46,85.78c-.63,1.02-1.31,1.76-2.05,2.22-.74.46-1.72.69-2.93.69-.88,0-1.58-.26-2.09-.79-.51-.52-.77-1.26-.77-2.22,0-.25.02-.52.06-.81-.38.49-.67.88-.87,1.18l-.52-.37c1.38-1.95,2.44-3.23,3.18-3.84.74-.61,1.5-.91,2.29-.91.43,0,.79.13,1.07.38.28.25.42.58.42.99,0,1.38-1.21,2.73-3.64,4.07.33.76,1.01,1.14,2.05,1.14.5,0,1.05-.18,1.66-.54.61-.36,1.16-.88,1.66-1.57l.48.38ZM46.31,85.75c1.76-.86,2.64-1.81,2.64-2.86,0-.32-.09-.58-.26-.78-.17-.2-.41-.3-.71-.3-.54,0-1,.25-1.37.75-.37.5-.56,1.1-.56,1.8,0,.38.04.71.13.97.08.25.13.4.13.43Z" style="fill: #0b0b33; stroke-width: 0px;"/>
    <path d="M60.24,85.78c-1.2,1.89-2.4,2.83-3.61,2.83s-1.86-.7-1.86-2.11c0-1.14.55-2.39,1.64-3.74-.19.04-.53.06-1.02.06-.32,0-.65-.06-1-.19-.54,1.18-1.26,2.33-2.15,3.45l-.49-.4c1-1.44,1.87-3.08,2.61-4.91,1.02.48,1.82.72,2.4.72.55,0,1.03-.22,1.43-.65l.27.19c-.65.81-1.17,1.62-1.57,2.44-.39.82-.59,1.73-.59,2.71,0,.31.1.6.3.87.2.27.43.41.67.41.4,0,.79-.16,1.17-.49.37-.33.81-.85,1.33-1.56l.48.38Z" style="fill: #0b0b33; stroke-width: 0px;"/>
    <path d="M68.75,85.78c-.63,1.02-1.31,1.76-2.05,2.22-.74.46-1.72.69-2.93.69-.88,0-1.58-.26-2.09-.79-.51-.52-.77-1.26-.77-2.22,0-.25.02-.52.06-.81-.38.49-.67.88-.87,1.18l-.52-.37c1.38-1.95,2.44-3.23,3.18-3.84.74-.61,1.5-.91,2.29-.91.43,0,.79.13,1.07.38.28.25.42.58.42.99,0,1.38-1.21,2.73-3.64,4.07.33.76,1.01,1.14,2.05,1.14.5,0,1.05-.18,1.66-.54.61-.36,1.16-.88,1.66-1.57l.48.38ZM62.59,85.75c1.76-.86,2.64-1.81,2.64-2.86,0-.32-.09-.58-.26-.78-.17-.2-.41-.3-.71-.3-.54,0-1,.25-1.37.75-.37.5-.56,1.1-.56,1.8,0,.38.04.71.13.97.08.25.13.4.13.43Z" style="fill: #0b0b33; stroke-width: 0px;"/>
    <path d="M79.59,85.78c-1.28,1.89-2.51,2.83-3.67,2.83-.38,0-.67-.12-.87-.37-.2-.25-.3-.82-.3-1.71v-3.64c0-.56-.17-.84-.52-.84-.17,0-.35.06-.53.19-.19.13-.38.32-.6.56-.21.25-.51.66-.9,1.24-.39.58-.58.9-.58.96v2.86l-1.59,1.02v-5.34c-.33.84-.83,1.69-1.49,2.54l-.49-.4c1.07-1.5,1.74-2.86,2.02-4.07l1.56-.75v2.96c.77-1.12,1.4-1.88,1.88-2.26.48-.38.96-.57,1.45-.57.45,0,.79.16,1.03.48.24.32.37,1.1.37,2.35v2.13c0,.57.02.96.07,1.18.05.21.18.32.39.32.52,0,1.29-.69,2.31-2.08l.49.41Z" style="fill: #0b0b33; stroke-width: 0px;"/>
    <path d="M90.78,85.78c-1.21,1.89-2.39,2.83-3.55,2.83-.43,0-.75-.12-.94-.35-.19-.23-.29-.72-.3-1.46-.64.78-1.17,1.3-1.61,1.53-.44.24-.94.36-1.5.36-.82,0-1.47-.28-1.95-.84-.48-.56-.72-1.31-.72-2.26v-.68c-.12.15-.39.53-.81,1.14l-.52-.37c.93-1.44,1.92-2.57,2.95-3.39,1.03-.82,1.94-1.23,2.71-1.23.55,0,1.1.16,1.64.49l1.4-.72v5.41c0,.57.03.92.08,1.03.05.12.2.17.43.17.2,0,.5-.18.91-.54.4-.36.84-.87,1.32-1.54l.48.41ZM85.96,85.59v-3.2c-.43-.43-.94-.65-1.53-.65-.64,0-1.21.3-1.72.89-.51.59-.77,1.33-.77,2.21,0,.76.18,1.35.54,1.77.36.42.86.63,1.48.63.49,0,.94-.24,1.36-.72.42-.48.63-.79.63-.93Z" style="fill: #0b0b33; stroke-width: 0px;"/>
  </g>
  <path d="M34.95,95.44c8.48-5.02,19.33-4.81,28.28-1.11,8.62,3.79,18.54,4.81,27.41,1.11-2,1.35-4.3,2.23-6.64,2.87-7.13,1.94-14.81.73-21.53-2.14-8.66-3.64-18.69-4.12-27.52-.73h0Z" style="fill: #0b0b33; stroke-width: 0px;"/>
</svg>