<?xml version="1.0" encoding="UTF-8"?>
<svg id="Capa_3" data-name="Capa 3" xmlns="http://www.w3.org/2000/svg" version="1.1" viewBox="0 0 100 100">
  <path d="M62.65,13.88c-3.67.76-6.39,4.3-6.24,8.08,0,.56.07,1.12.1,1.68-.25-1.11-.5-2.24-.44-3.38-.02-3.72,2.6-6.99,6.06-8.3,0,0,.53,1.93.53,1.93h0Z" style="fill: #0b0b33; stroke-width: 0px;"/>
  <g>
    <polygon points="68.27 78.19 68.62 89.36 66.28 78.43 68.27 78.19 68.27 78.19" style="fill: #0b0b33; stroke-width: 0px;"/>
    <path d="M9.28,32.48c0-.53.01-1.08.06-1.66.75-8.84,9.89-9.25,11.35-9.26.12,0,.22-.07.27-.18.5-1.09,3.52-6.81,11.86-5.05.1.02.21-.01.29-.09.91-1.01,7.26-7.5,16.23-3.29.1.05.22.04.31-.03.99-.72,6.98-4.7,12.64-.11.07.06.17.08.26.06,1.13-.26,8.76-1.72,12.93,6.12.05.09.13.14.22.16,1.33.18,11.14,1.87,12.57,11.63.02.11.09.2.2.24,1.25.44,8.86,3.59,5.45,14.63-.02.07-.02.15.01.22.5,1.06,4.34,10.14-7.47,15.04-.11.05-.19.16-.19.28.04,2.01-.21,18.15-18.66,16.77-.19-.01-.35.15-.32.34h0" style="fill: none; stroke: #0b0b33; stroke-miterlimit: 10; stroke-width: 2px;"/>
    <path d="M20.88,43.03c-8.71,1.08-15.44-6.25-11.17-14.57,0,0,.2.04.2.04.5,8.6,1.17,13.34,10.97,14.33,0,0,0,.2,0,.2h0Z" style="fill: #0b0b33; stroke-width: 0px;"/>
    <path d="M58.81,77.12c1.15,3.66,1.25,7.46.81,11.2-.1-1.84-.38-3.66-.8-5.42-.42-1.76-1.03-3.46-1.85-4.99l1.84-.79h0Z" style="fill: #0b0b33; stroke-width: 0px;"/>
    <path d="M9.28,32.31s-9.43,10.54,0,22.86c6.37,8.33,16.49,5.57,18.51,4.92.18-.06.37.06.39.25.26,2.08,2.42,12.07,20.38,11.04,5.07-.29,7.84,2.64,9.34,6.14" style="fill: none; stroke: #0b0b33; stroke-miterlimit: 10; stroke-width: 2px;"/>
    <path d="M27.16,60.11c-.37-4.83,2.05-10.35,7.21-11.22-2.15.78-3.99,2.33-4.78,4.48-.77,2-.86,4.38-.45,6.44,0,0-1.98.3-1.98.3h0Z" style="fill: #0b0b33; stroke-width: 0px;"/>
    <path d="M85.26,61c.18-5.81-3.37-11.86-9.26-13.3-.82-.25-1.69-.35-2.54-.54,1.73.15,3.5.33,5.13,1.02,5.24,1.91,8.24,7.42,8.67,12.81,0,0-2,0-2,0h0Z" style="fill: #0b0b33; stroke-width: 0px;"/>
  </g>
</svg>