<?xml version="1.0" encoding="UTF-8"?>
<svg id="Capa_3" data-name="Capa 3" xmlns="http://www.w3.org/2000/svg" viewBox="0 0 107 44.94">
  <defs>
    <style>
      .cls-1 {
        fill: #0b0b33;
        stroke-width: 0px;
      }
    </style>
  </defs>
  <g>
    <path class="cls-1" d="M14.42,9.3c1.37.7,2.47,1.73,3.3,3.08.83,1.35,1.24,2.72,1.24,4.09,0,1.63-.48,3.06-1.44,4.27-.96,1.21-2.18,1.82-3.68,1.82-.74,0-1.54-.25-2.4-.74-.86-.49-1.61-1.21-2.24-2.16.54-.84,1.34-1.56,2.37-2.16l.21.26c-.04.18-.05.43-.05.76,0,.76.26,1.43.79,2.02.52.59,1.12.88,1.78.88.82,0,1.5-.35,2.02-1.04.52-.69.79-1.57.79-2.62,0-2.18-1.29-4.12-3.88-5.83l-2.24,3.53c-.9,1.44-1.55,2.41-1.95,2.9l-.82-.66c1.79-2.65,3.58-5.89,5.35-9.7l.63.05.21,1.24ZM23.43,17.86c-1.88,3.09-4.25,4.77-7.12,5.04l-.16-.5c1.27-.3,2.34-.8,3.23-1.49.89-.69,1.97-1.92,3.26-3.68l.79.63Z"/>
    <path class="cls-1" d="M37.46,17.86c-1.04,1.69-2.17,2.91-3.4,3.68-1.23.76-2.85,1.15-4.85,1.15-1.46,0-2.61-.44-3.47-1.31-.85-.87-1.28-2.1-1.28-3.68,0-.42.03-.87.11-1.34-.63.81-1.12,1.46-1.45,1.95l-.87-.61c2.28-3.23,4.04-5.36,5.27-6.37,1.23-1.01,2.5-1.52,3.8-1.52.72,0,1.31.21,1.78.63.47.42.7.97.7,1.63,0,2.29-2.01,4.53-6.04,6.75.54,1.27,1.68,1.9,3.4,1.9.83,0,1.74-.3,2.76-.9,1.01-.6,1.93-1.47,2.76-2.61l.79.63ZM27.26,17.81c2.92-1.42,4.38-3.01,4.38-4.75,0-.53-.14-.96-.43-1.29-.29-.33-.68-.5-1.17-.5-.9,0-1.65.41-2.27,1.24-.62.83-.92,1.82-.92,2.98,0,.63.07,1.17.21,1.61.14.42.21.66.21.71Z"/>
    <path class="cls-1" d="M50.35,17.86c-1.99,3.13-3.98,4.69-5.98,4.69s-3.08-1.17-3.08-3.51c0-1.9.91-3.96,2.72-6.2-.32.07-.88.11-1.69.11-.53,0-1.08-.11-1.66-.32-.9,1.95-2.08,3.86-3.56,5.72l-.82-.66c1.65-2.39,3.09-5.11,4.32-8.15,1.69.79,3.01,1.19,3.98,1.19.91,0,1.7-.36,2.37-1.08l.45.32c-1.08,1.34-1.95,2.69-2.6,4.05-.65,1.36-.98,2.86-.98,4.5,0,.51.17.99.5,1.44.34.45.71.67,1.11.67.67,0,1.32-.27,1.93-.82.62-.54,1.35-1.41,2.2-2.58l.79.63Z"/>
    <path class="cls-1" d="M64.46,17.86c-1.04,1.69-2.17,2.91-3.4,3.68-1.23.76-2.85,1.15-4.85,1.15-1.46,0-2.61-.44-3.47-1.31-.85-.87-1.28-2.1-1.28-3.68,0-.42.03-.87.11-1.34-.63.81-1.12,1.46-1.45,1.95l-.87-.61c2.28-3.23,4.04-5.36,5.27-6.37,1.23-1.01,2.5-1.52,3.8-1.52.72,0,1.31.21,1.78.63.47.42.7.97.7,1.63,0,2.29-2.01,4.53-6.04,6.75.54,1.27,1.68,1.9,3.4,1.9.83,0,1.74-.3,2.76-.9,1.01-.6,1.93-1.47,2.76-2.61l.79.63ZM54.25,17.81c2.92-1.42,4.38-3.01,4.38-4.75,0-.53-.14-.96-.43-1.29-.29-.33-.68-.5-1.17-.5-.9,0-1.65.41-2.27,1.24-.62.83-.92,1.82-.92,2.98,0,.63.07,1.17.21,1.61.14.42.21.66.21.71Z"/>
    <path class="cls-1" d="M82.44,17.86c-2.13,3.13-4.16,4.69-6.09,4.69-.63,0-1.12-.21-1.45-.62-.33-.41-.5-1.36-.5-2.83v-6.04c0-.93-.29-1.4-.87-1.4-.28,0-.58.11-.88.32-.31.21-.64.52-.99.94-.35.41-.85,1.1-1.49,2.06-.64.96-.96,1.49-.96,1.6v4.75l-2.64,1.69v-8.86c-.54,1.39-1.37,2.79-2.48,4.22l-.82-.66c1.78-2.5,2.89-4.75,3.35-6.75l2.58-1.24v4.9c1.28-1.86,2.32-3.11,3.11-3.74.79-.63,1.59-.95,2.4-.95.74,0,1.31.26,1.71.79.4.53.61,1.83.61,3.9v3.53c0,.95.04,1.6.12,1.95.08.35.29.53.65.53.86,0,2.14-1.15,3.82-3.45l.82.69Z"/>
    <path class="cls-1" d="M101,17.86c-2,3.13-3.96,4.69-5.88,4.69-.72,0-1.24-.19-1.56-.58-.32-.39-.48-1.2-.5-2.43-1.05,1.3-1.95,2.15-2.68,2.54-.73.4-1.56.59-2.49.59-1.35,0-2.43-.47-3.23-1.4-.8-.93-1.2-2.18-1.2-3.74v-1.13c-.19.25-.64.88-1.34,1.9l-.87-.61c1.55-2.39,3.18-4.27,4.89-5.63,1.71-1.36,3.21-2.04,4.5-2.04.91,0,1.82.27,2.72.82l2.32-1.19v8.96c0,.95.04,1.52.13,1.71.09.19.33.29.71.29.33,0,.83-.3,1.5-.9.67-.6,1.4-1.45,2.19-2.56l.79.69ZM93.01,17.55v-5.3c-.71-.72-1.55-1.08-2.54-1.08-1.06,0-2.01.49-2.86,1.48-.85.98-1.27,2.21-1.27,3.66,0,1.27.3,2.25.9,2.94.6.69,1.42,1.04,2.46,1.04.81,0,1.57-.4,2.26-1.2.7-.8,1.05-1.31,1.05-1.54Z"/>
  </g>
  <path class="cls-1" d="M8.41,31.87c14.09-8.19,32.02-7.83,46.84-1.7,10.75,4.7,22.56,6.85,34.18,4.94,3.87-.61,7.7-1.62,11.34-3.24-3.33,2.21-7.15,3.65-11.03,4.69-9.84,2.57-20.38,1.72-29.97-1.48,0,0-5.66-2.14-5.66-2.14-1.57-.6-3.85-1.58-5.46-2-13-4.15-27.44-4.09-40.23.93h0Z"/>
</svg>