<?xml version="1.0" encoding="UTF-8"?>
<svg id="Capa_3" data-name="Capa 3" xmlns="http://www.w3.org/2000/svg" version="1.1" viewBox="0 0 107 44.9">
  <defs>
    <style>
      .cls-1 {
        fill: #c2c2ff;
        stroke-width: 0px;
      }
    </style>
  </defs>
  <g>
    <path class="cls-1" d="M14.4,9.3c1.4.7,2.5,1.7,3.3,3.1s1.2,2.7,1.2,4.1-.5,3.1-1.4,4.3c-1,1.2-2.2,1.8-3.7,1.8s-1.5-.2-2.4-.7-1.6-1.2-2.2-2.2c.5-.8,1.3-1.6,2.4-2.2l.2.3v.8c0,.8.3,1.4.8,2s1.1.9,1.8.9,1.5-.4,2-1c.5-.7.8-1.6.8-2.6,0-2.2-1.3-4.1-3.9-5.8l-2.2,3.5c-.9,1.4-1.6,2.4-1.9,2.9l-.8-.7c1.8-2.6,3.6-5.9,5.4-9.7h.6l.2,1.3h-.2ZM23.4,17.9c-1.9,3.1-4.2,4.8-7.1,5l-.2-.5c1.3-.3,2.3-.8,3.2-1.5s2-1.9,3.3-3.7l.8.6h0Z"/>
    <path class="cls-1" d="M37.5,17.9c-1,1.7-2.2,2.9-3.4,3.7-1.2.8-2.9,1.1-4.9,1.1s-2.6-.4-3.5-1.3-1.3-2.1-1.3-3.7,0-.9.1-1.3c-.6.8-1.1,1.5-1.5,2l-.9-.6c2.3-3.2,4-5.4,5.3-6.4,1.2-1,2.5-1.5,3.8-1.5s1.3.2,1.8.6c.5.4.7,1,.7,1.6,0,2.3-2,4.5-6,6.8.5,1.3,1.7,1.9,3.4,1.9s1.7-.3,2.8-.9c1-.6,1.9-1.5,2.8-2.6l.8.6h0ZM27.3,17.8c2.9-1.4,4.4-3,4.4-4.8s-.1-1-.4-1.3-.7-.5-1.2-.5c-.9,0-1.6.4-2.3,1.2s-.9,1.8-.9,3,0,1.2.2,1.6c.1.4.2.7.2.7h0Z"/>
    <path class="cls-1" d="M50.3,17.9c-2,3.1-4,4.7-6,4.7s-3.1-1.2-3.1-3.5.9-4,2.7-6.2c-.3,0-.9.1-1.7.1s-1.1-.1-1.7-.3c-.9,1.9-2.1,3.9-3.6,5.7l-.8-.7c1.7-2.4,3.1-5.1,4.3-8.1,1.7.8,3,1.2,4,1.2s1.7-.4,2.4-1.1l.5.3c-1.1,1.3-2,2.7-2.6,4.1-.7,1.4-1,2.9-1,4.5s.2,1,.5,1.4c.3.5.7.7,1.1.7.7,0,1.3-.3,1.9-.8.6-.5,1.3-1.4,2.2-2.6l.8.6h0Z"/>
    <path class="cls-1" d="M64.5,17.9c-1,1.7-2.2,2.9-3.4,3.7-1.2.8-2.8,1.1-4.8,1.1s-2.6-.4-3.5-1.3c-.8-.9-1.3-2.1-1.3-3.7s0-.9,0-1.3c-.6.8-1.1,1.5-1.5,2l-.9-.6c2.3-3.2,4-5.4,5.3-6.4,1.2-1,2.5-1.5,3.8-1.5s1.3.2,1.8.6c.5.4.7,1,.7,1.6,0,2.3-2,4.5-6,6.8.5,1.3,1.7,1.9,3.4,1.9s1.7-.3,2.8-.9c1-.6,1.9-1.5,2.8-2.6l.8.6h0ZM54.2,17.8c2.9-1.4,4.4-3,4.4-4.8s0-1-.4-1.3-.7-.5-1.2-.5c-.9,0-1.7.4-2.3,1.2s-.9,1.8-.9,3,0,1.2.2,1.6c0,.4.2.7.2.7h0Z"/>
    <path class="cls-1" d="M82.4,17.9c-2.1,3.1-4.2,4.7-6.1,4.7s-1.1-.2-1.4-.6-.5-1.4-.5-2.8v-6c0-.9-.3-1.4-.9-1.4s-.6.1-.9.3-.6.5-1,.9c-.3.4-.8,1.1-1.5,2.1-.6,1-1,1.5-1,1.6v4.8l-2.6,1.7v-8.9c-.5,1.4-1.4,2.8-2.5,4.2l-.8-.7c1.8-2.5,2.9-4.8,3.3-6.8l2.6-1.2v4.9c1.3-1.9,2.3-3.1,3.1-3.7s1.6-.9,2.4-.9,1.3.3,1.7.8.6,1.8.6,3.9v3.5c0,1,0,1.6,0,2s.3.5.7.5c.9,0,2.1-1.1,3.8-3.5l.8.7h.1Z"/>
    <path class="cls-1" d="M101,17.9c-2,3.1-4,4.7-5.9,4.7s-1.2-.2-1.6-.6-.5-1.2-.5-2.4c-1.1,1.3-1.9,2.1-2.7,2.5-.7.4-1.6.6-2.5.6-1.3,0-2.4-.5-3.2-1.4s-1.2-2.2-1.2-3.7v-1.1c-.2.2-.6.9-1.3,1.9l-.9-.6c1.6-2.4,3.2-4.3,4.9-5.6s3.2-2,4.5-2,1.8.3,2.7.8l2.3-1.2v9c0,1,0,1.5,0,1.7,0,.2.3.3.7.3s.8-.3,1.5-.9,1.4-1.5,2.2-2.6l.8.7h0ZM93,17.5v-5.3c-.7-.7-1.6-1.1-2.5-1.1s-2,.5-2.9,1.5c-.8,1-1.3,2.2-1.3,3.7s.3,2.2.9,2.9,1.4,1,2.5,1,1.6-.4,2.3-1.2c.7-.8,1.1-1.3,1-1.5Z"/>
  </g>
  <path class="cls-1" d="M8.4,31.9c14.1-8.2,32-7.8,46.8-1.7,10.8,4.7,22.6,6.9,34.2,4.9,3.9-.6,7.7-1.6,11.3-3.2-3.3,2.2-7.2,3.6-11,4.7-9.8,2.6-20.4,1.7-30-1.5l-5.7-2.1c-1.6-.6-3.8-1.6-5.5-2-13-4.1-27.4-4.1-40.2.9h.1Z"/>
</svg>